<?xml version="1.0" encoding="utf-8"?>
<!-- Generator: Adobe Illustrator 28.1.0, SVG Export Plug-In . SVG Version: 6.00 Build 0)  -->
<svg version="1.1" xmlns="http://www.w3.org/2000/svg" xmlns:xlink="http://www.w3.org/1999/xlink" x="0px" y="0px"
	 viewBox="0 0 179 187" style="enable-background:new 0 0 179 187;" xml:space="preserve">
<style type="text/css">
	.st0{fill:none;stroke:url(#SVGID_1_);stroke-width:3;stroke-miterlimit:10;}
	.st1{fill:none;stroke:url(#SVGID_00000121963980017364634490000005847685916051411883_);stroke-width:3;stroke-miterlimit:10;}
	.st2{fill:none;stroke:url(#SVGID_00000016036586520738968900000013646333504082043794_);stroke-width:3;stroke-miterlimit:10;}
	.st3{fill:none;stroke:url(#SVGID_00000060017539009306603290000012803449795999591868_);stroke-width:3;stroke-miterlimit:10;}
	.st4{fill:none;stroke:url(#SVGID_00000057867375792849396140000005689654785841212090_);stroke-width:3;stroke-miterlimit:10;}
	.st5{fill:none;stroke:url(#SVGID_00000169533020196602982180000004383895732102701208_);stroke-width:3;stroke-miterlimit:10;}
	.st6{fill:none;stroke:url(#SVGID_00000145037925829938100620000008336838364296897155_);stroke-width:3;stroke-miterlimit:10;}
	.st7{fill:none;stroke:url(#SVGID_00000059273877012536156880000001451155823615233931_);stroke-width:3;stroke-miterlimit:10;}
	.st8{fill:none;stroke:url(#SVGID_00000155120146743376178540000010143204299625347207_);stroke-width:3;stroke-miterlimit:10;}
	.st9{fill:none;stroke:url(#SVGID_00000091713285386552271690000004708052386170090127_);stroke-width:3;stroke-miterlimit:10;}
	.st10{fill:none;stroke:#B92452;stroke-width:3;stroke-miterlimit:10;}
</style>
<g id="globos">
	<g id="balloons_heart_bubbles_decor">
		<g>
			
				<linearGradient id="SVGID_1_" gradientUnits="userSpaceOnUse" x1="68.77" y1="126.08" x2="70.96" y2="126.08" gradientTransform="matrix(1 0 0 -1 0 188)">
				<stop  offset="0" style="stop-color:#BF9F56"/>
				<stop  offset="0.15" style="stop-color:#BF9F56"/>
				<stop  offset="1" style="stop-color:#BF9F56"/>
			</linearGradient>
			<path class="st0" d="M70,61.8c-0.1,0.1-0.2,0.2-0.3,0.2"/>
			<g>
				
					<linearGradient id="SVGID_00000002352453541927339000000017823386474876474268_" gradientUnits="userSpaceOnUse" x1="58.1195" y1="76.11" x2="63.9805" y2="76.11" gradientTransform="matrix(1 0 0 -1 0 188)">
					<stop  offset="0" style="stop-color:#BF9F56"/>
					<stop  offset="0.15" style="stop-color:#BF9F56"/>
					<stop  offset="1" style="stop-color:#BF9F56"/>
				</linearGradient>
				
					<path style="fill:none;stroke:url(#SVGID_00000002352453541927339000000017823386474876474268_);stroke-width:3;stroke-miterlimit:10;" d="
					M61.7,103.1c0.2,2.9-2.3,3.1-2.1,6c0.2,2.9,2.7,2.7,2.8,5.7s-2.3,3.1-2.1,6"/>
				
					<linearGradient id="SVGID_00000039825406278308112320000006895410859438842014_" gradientUnits="userSpaceOnUse" x1="46.03" y1="135.705" x2="48.4" y2="135.705" gradientTransform="matrix(1 0 0 -1 0 188)">
					<stop  offset="0" style="stop-color:#BF9F56"/>
					<stop  offset="0.15" style="stop-color:#BF9F56"/>
					<stop  offset="1" style="stop-color:#BF9F56"/>
				</linearGradient>
				
					<path style="fill:none;stroke:url(#SVGID_00000039825406278308112320000006895410859438842014_);stroke-width:3;stroke-miterlimit:10;" d="
					M47.1,52.4c0-0.1,0.1-0.1,0.2-0.2"/>
				
					<linearGradient id="SVGID_00000065762000449151038500000001631972116314182032_" gradientUnits="userSpaceOnUse" x1="40.45" y1="113.5864" x2="65.8921" y2="113.5864" gradientTransform="matrix(1 0 0 -1 0 188)">
					<stop  offset="0" style="stop-color:#BF9F56"/>
					<stop  offset="0.15" style="stop-color:#BF9F56"/>
					<stop  offset="1" style="stop-color:#BF9F56"/>
				</linearGradient>
				
					<path style="fill:none;stroke:url(#SVGID_00000065762000449151038500000001631972116314182032_);stroke-width:3;stroke-miterlimit:10;" d="
					M65.5,90.6c-1.3,0.4-2.5,0.6-3.9,0.6C51.5,91.1,42,79.2,42,65.7c0-3.2,0.8-6.2,2.1-8.8"/>
				
					<linearGradient id="SVGID_00000055694440681843541860000000537870882563612331_" gradientUnits="userSpaceOnUse" x1="51.3288" y1="138.7801" x2="77.7944" y2="138.7801" gradientTransform="matrix(1 0 0 -1 0 188)">
					<stop  offset="0" style="stop-color:#BF9F56"/>
					<stop  offset="0.15" style="stop-color:#BF9F56"/>
					<stop  offset="1" style="stop-color:#BF9F56"/>
				</linearGradient>
				
					<path style="fill:none;stroke:url(#SVGID_00000055694440681843541860000000537870882563612331_);stroke-width:3;stroke-miterlimit:10;" d="
					M52.1,48.5c2.8-1.6,6.1-2.5,9.6-2.5c6,0,11.4,2.7,15,7"/>
				
					<linearGradient id="SVGID_00000000221153797671805920000012348353294598824618_" gradientUnits="userSpaceOnUse" x1="55.5" y1="92.8739" x2="67.76" y2="92.8739" gradientTransform="matrix(1 0 0 -1 0 188)">
					<stop  offset="0" style="stop-color:#BF9F56"/>
					<stop  offset="0.15" style="stop-color:#BF9F56"/>
					<stop  offset="1" style="stop-color:#BF9F56"/>
				</linearGradient>
				
					<path style="fill:none;stroke:url(#SVGID_00000000221153797671805920000012348353294598824618_);stroke-width:3;stroke-miterlimit:10;" d="
					M61.6,91.1l4.6,5.6c0,1.3-2.7,1.8-4.6,1.8c-1.7,0-4.6-0.9-4.6-1.8l0.5-0.5"/>
			</g>
			<g>
				
					<linearGradient id="SVGID_00000023968029802298081740000011801426733888784273_" gradientUnits="userSpaceOnUse" x1="115.5" y1="76.11" x2="121.361" y2="76.11" gradientTransform="matrix(1 0 0 -1 0 188)">
					<stop  offset="0" style="stop-color:#BF9F56"/>
					<stop  offset="0.15" style="stop-color:#BF9F56"/>
					<stop  offset="1" style="stop-color:#BF9F56"/>
				</linearGradient>
				
					<path style="fill:none;stroke:url(#SVGID_00000023968029802298081740000011801426733888784273_);stroke-width:3;stroke-miterlimit:10;" d="
					M117.8,103.1c-0.2,2.9,2.3,3.1,2.1,6c-0.2,2.9-2.7,2.7-2.8,5.7c-0.2,2.9,2.3,3.1,2.1,6"/>
				
					<linearGradient id="SVGID_00000099660724995633302610000014495651856351948961_" gradientUnits="userSpaceOnUse" x1="101.77" y1="135.705" x2="104.14" y2="135.705" gradientTransform="matrix(1 0 0 -1 0 188)">
					<stop  offset="0" style="stop-color:#BF9F56"/>
					<stop  offset="0.15" style="stop-color:#BF9F56"/>
					<stop  offset="1" style="stop-color:#BF9F56"/>
				</linearGradient>
				
					<path style="fill:none;stroke:url(#SVGID_00000099660724995633302610000014495651856351948961_);stroke-width:3;stroke-miterlimit:10;" d="
					M102.9,52.4c0.1-0.1,0.1-0.1,0.2-0.2"/>
				
					<linearGradient id="SVGID_00000062890337305331610170000015470696601571835819_" gradientUnits="userSpaceOnUse" x1="106.5941" y1="119.435" x2="138.54" y2="119.435" gradientTransform="matrix(1 0 0 -1 0 188)">
					<stop  offset="0" style="stop-color:#BF9F56"/>
					<stop  offset="0.15" style="stop-color:#BF9F56"/>
					<stop  offset="1" style="stop-color:#BF9F56"/>
				</linearGradient>
				
					<path style="fill:none;stroke:url(#SVGID_00000062890337305331610170000015470696601571835819_);stroke-width:3;stroke-miterlimit:10;" d="
					M107.4,48.7c2.9-1.7,6.4-2.7,10-2.7c10.9,0,19.7,8.8,19.7,19.7c0,13.7-9.4,25.5-19.7,25.5c-1.2,0-2.3-0.2-3.5-0.5"/>
				
					<linearGradient id="SVGID_00000029766686253949060340000002386735737586621107_" gradientUnits="userSpaceOnUse" x1="111.24" y1="92.8739" x2="123.5" y2="92.8739" gradientTransform="matrix(1 0 0 -1 0 188)">
					<stop  offset="0" style="stop-color:#BF9F56"/>
					<stop  offset="0.15" style="stop-color:#BF9F56"/>
					<stop  offset="1" style="stop-color:#BF9F56"/>
				</linearGradient>
				
					<path style="fill:none;stroke:url(#SVGID_00000029766686253949060340000002386735737586621107_);stroke-width:3;stroke-miterlimit:10;" d="
					M117.4,91.1l4.6,5.6c0,1.3-2.7,1.8-4.6,1.8c-1.7,0-4.6-0.9-4.6-1.8l0.5-0.5"/>
			</g>
		</g>
	</g>
</g>
<g id="Capa_2">
	<path class="st10" d="M68.6,64.4c-0.8,1.8-1.3,3.8-1.3,6c0,18.1,24.6,29.7,24.6,29.7s24.6-11.7,24.6-29.7c0-7.5-5.7-13.5-12.7-13.5
		c-5.4,0-10,3.6-11.9,8.7c-1.8-5.1-6.4-8.7-11.9-8.7c-0.8,0-1.6,0.1-2.4,0.2"/>
	<path class="st10" d="M84.5,101.9c-1,0.2-1.9,0.4-2.6,0.8c-1.7,0.9-2.5,3.1-1.6,5s3,2.6,4.7,1.7c2.8-1.5,6.9-7.7,6.9-7.7"/>
	<path class="st10" d="M103.5,107.7c-0.8,1.8-3,2.6-4.7,1.7c-2.8-1.5-6.9-7.7-6.9-7.7s7.1-0.5,10,1
		C103.6,103.6,104.3,105.8,103.5,107.7z"/>
	<path class="st10" d="M91.9,110.2c0.2,3.6-3.1,3.8-2.9,7.3s3.5,3.4,3.7,6.9c0.2,3.6-3.1,3.8-2.9,7.3c0.2,3.6,3.5,3.4,3.7,7"/>
</g>
</svg>
