<?xml version="1.0" encoding="UTF-8"?>
<svg id="torta" xmlns="http://www.w3.org/2000/svg" xmlns:xlink="http://www.w3.org/1999/xlink" viewBox="0 0 179 187">
  <defs>
    <style>
      .cls-1 {
        stroke: url(#Degradado_sin_nombre_2);
      }

      .cls-1, .cls-2, .cls-3, .cls-4, .cls-5, .cls-6, .cls-7, .cls-8, .cls-9, .cls-10, .cls-11, .cls-12, .cls-13 {
        fill: none;
        stroke-miterlimit: 10;
        stroke-width: 3px;
      }

      .cls-2 {
        stroke: url(#Degradado_sin_nombre_2-6);
      }

      .cls-3 {
        stroke: url(#Degradado_sin_nombre_2-7);
      }

      .cls-4 {
        stroke: url(#Degradado_sin_nombre_2-11);
      }

      .cls-5 {
        stroke: url(#Degradado_sin_nombre_2-8);
      }

      .cls-6 {
        stroke: url(#Degradado_sin_nombre_2-4);
      }

      .cls-7 {
        stroke: url(#Degradado_sin_nombre_2-2);
      }

      .cls-8 {
        stroke: url(#Degradado_sin_nombre_2-9);
      }

      .cls-9 {
        stroke: url(#Degradado_sin_nombre_2-13);
      }

      .cls-10 {
        stroke: url(#Degradado_sin_nombre_2-3);
      }

      .cls-11 {
        stroke: url(#Degradado_sin_nombre_2-10);
      }

      .cls-12 {
        stroke: url(#Degradado_sin_nombre_2-5);
      }

      .cls-13 {
        stroke: url(#Degradado_sin_nombre_2-12);
      }
    </style>
    <linearGradient id="Degradado_sin_nombre_2" data-name="Degradado sin nombre 2" x1="41" y1="135.93" x2="138" y2="135.93" gradientUnits="userSpaceOnUse">
      <stop offset="0" stop-color="#bf9f56"/>
      <stop offset=".15" stop-color="#bf9f56"/>
      <stop offset="1" stop-color="#bf9f56"/>
    </linearGradient>
    <linearGradient id="Degradado_sin_nombre_2-2" data-name="Degradado sin nombre 2" x1="110.69" y1="94.26" x2="128.28" y2="94.26" xlink:href="#Degradado_sin_nombre_2"/>
    <linearGradient id="Degradado_sin_nombre_2-3" data-name="Degradado sin nombre 2" x1="96.1" y1="96.28" x2="113.69" y2="96.28" xlink:href="#Degradado_sin_nombre_2"/>
    <linearGradient id="Degradado_sin_nombre_2-4" data-name="Degradado sin nombre 2" x1="79.9" y1="95.88" x2="99.1" y2="95.88" xlink:href="#Degradado_sin_nombre_2"/>
    <linearGradient id="Degradado_sin_nombre_2-5" data-name="Degradado sin nombre 2" x1="65.31" y1="96.28" x2="82.9" y2="96.28" xlink:href="#Degradado_sin_nombre_2"/>
    <linearGradient id="Degradado_sin_nombre_2-6" data-name="Degradado sin nombre 2" x1="50.72" y1="94.26" x2="68.31" y2="94.26" xlink:href="#Degradado_sin_nombre_2"/>
    <linearGradient id="Degradado_sin_nombre_2-7" data-name="Degradado sin nombre 2" x1="50.72" y1="108.9" x2="128.28" y2="108.9" xlink:href="#Degradado_sin_nombre_2"/>
    <linearGradient id="Degradado_sin_nombre_2-8" data-name="Degradado sin nombre 2" x1="105.83" y1="76.41" x2="115.31" y2="76.41" xlink:href="#Degradado_sin_nombre_2"/>
    <linearGradient id="Degradado_sin_nombre_2-9" data-name="Degradado sin nombre 2" x1="105.83" y1="55.18" x2="115.31" y2="55.18" xlink:href="#Degradado_sin_nombre_2"/>
    <linearGradient id="Degradado_sin_nombre_2-10" data-name="Degradado sin nombre 2" x1="84.76" y1="74.79" x2="94.24" y2="74.79" xlink:href="#Degradado_sin_nombre_2"/>
    <linearGradient id="Degradado_sin_nombre_2-11" data-name="Degradado sin nombre 2" x1="84.76" y1="51.94" x2="94.24" y2="51.94" xlink:href="#Degradado_sin_nombre_2"/>
    <linearGradient id="Degradado_sin_nombre_2-12" data-name="Degradado sin nombre 2" x1="63.69" y1="76.41" x2="73.17" y2="76.41" xlink:href="#Degradado_sin_nombre_2"/>
    <linearGradient id="Degradado_sin_nombre_2-13" data-name="Degradado sin nombre 2" x1="63.69" y1="55.18" x2="73.17" y2="55.18" xlink:href="#Degradado_sin_nombre_2"/>
  </defs>
  <g id="cake_festive_birthday_candles" data-name="cake, festive, birthday, candles">
    <g>
      <path class="cls-1" d="M46.19,132.06c-2.38.93-3.69,1.88-3.69,2.78,0,3.58,21.04,4.86,47,4.86s47-1.28,47-4.86c0-.86-1.22-1.78-3.45-2.68"/>
      <path class="cls-7" d="M112.19,91.89c0,4.02,3.27,7.29,7.29,7.29s7.29-3.27,7.29-7.29v-4.05"/>
      <path class="cls-10" d="M97.6,91.89c0,4.02,3.27,7.29,7.29,7.29s7.29-3.27,7.29-7.29"/>
      <path class="cls-6" d="M81.4,91.08c0,4.47,3.63,8.1,8.1,8.1s8.1-3.63,8.1-8.1"/>
      <path class="cls-12" d="M66.81,91.89c0,4.02,3.27,7.29,7.29,7.29s7.29-3.27,7.29-7.29"/>
      <path class="cls-2" d="M52.22,87.84v4.05c0,4.02,3.27,7.29,7.29,7.29s7.29-3.27,7.29-7.29"/>
      <path class="cls-3" d="M126.78,87.84v42.14c0,1.79-1.45,3.24-3.24,3.24H55.47c-1.79,0-3.24-1.45-3.24-3.24v-42.14c0-1.78,16.69-3.24,37.28-3.24s37.28,1.46,37.28,3.24Z"/>
      <path class="cls-5" d="M113.81,84.51h-6.48v-14.59c0-.91.71-1.62,1.62-1.62h3.24c.91,0,1.62.71,1.62,1.62v14.59Z"/>
      <path class="cls-8" d="M108.27,62.5c-.58-.58-.94-1.39-.94-2.3,0-1.78,3.24-9.72,3.24-9.72,0,0,3.24,7.94,3.24,9.72,0,1-.45,1.91-1.17,2.5"/>
      <path class="cls-11" d="M92.74,84.51h-6.48v-17.83c0-.91.71-1.62,1.62-1.62h3.24c.91,0,1.62.71,1.62,1.62v17.83Z"/>
      <path class="cls-4" d="M87.2,59.26c-.58-.58-.94-1.39-.94-2.3,0-1.78,3.24-9.72,3.24-9.72,0,0,3.24,7.94,3.24,9.72,0,1-.45,1.91-1.17,2.5"/>
      <path class="cls-13" d="M71.67,84.51h-6.48v-14.59c0-.91.71-1.62,1.62-1.62h3.24c.91,0,1.62.71,1.62,1.62v14.59Z"/>
      <path class="cls-9" d="M66.13,62.5c-.58-.58-.94-1.39-.94-2.3,0-1.78,3.24-9.72,3.24-9.72,0,0,3.24,7.94,3.24,9.72,0,1-.45,1.91-1.17,2.5"/>
    </g>
  </g>
</svg>