<?xml version="1.0" encoding="UTF-8"?>
<svg id="copa" xmlns="http://www.w3.org/2000/svg" xmlns:xlink="http://www.w3.org/1999/xlink" viewBox="0 0 179 187">
  <defs>
    <style>
      .cls-1 {
        stroke: url(#Degradado_sin_nombre_2);
      }

      .cls-1, .cls-2, .cls-3, .cls-4, .cls-5, .cls-6, .cls-7, .cls-8, .cls-9, .cls-10, .cls-11, .cls-12, .cls-13, .cls-14, .cls-15, .cls-16, .cls-17 {
        fill: none;
        stroke-miterlimit: 10;
        stroke-width: 3px;
      }

      .cls-2 {
        stroke: url(#Degradado_sin_nombre_2-6);
      }

      .cls-3 {
        stroke: url(#Degradado_sin_nombre_2-7);
      }

      .cls-4 {
        stroke: url(#Degradado_sin_nombre_2-11);
      }

      .cls-5 {
        stroke: url(#Degradado_sin_nombre_2-14);
      }

      .cls-6 {
        stroke: url(#Degradado_sin_nombre_2-16);
      }

      .cls-7 {
        stroke: url(#Degradado_sin_nombre_2-8);
      }

      .cls-8 {
        stroke: url(#Degradado_sin_nombre_2-4);
      }

      .cls-9 {
        stroke: url(#Degradado_sin_nombre_2-2);
      }

      .cls-10 {
        stroke: url(#Degradado_sin_nombre_2-9);
      }

      .cls-11 {
        stroke: url(#Degradado_sin_nombre_2-13);
      }

      .cls-12 {
        stroke: url(#Degradado_sin_nombre_2-3);
      }

      .cls-13 {
        stroke: url(#Degradado_sin_nombre_2-10);
      }

      .cls-14 {
        stroke: url(#Degradado_sin_nombre_2-5);
      }

      .cls-15 {
        stroke: url(#Degradado_sin_nombre_2-17);
      }

      .cls-16 {
        stroke: url(#Degradado_sin_nombre_2-15);
      }

      .cls-17 {
        stroke: url(#Degradado_sin_nombre_2-12);
      }
    </style>
    <linearGradient id="Degradado_sin_nombre_2" data-name="Degradado sin nombre 2" x1="39.17" y1="84.83" x2="64.89" y2="84.83" gradientUnits="userSpaceOnUse">
      <stop offset="0" stop-color="#bf9f56"/>
      <stop offset=".15" stop-color="#bf9f56"/>
      <stop offset="1" stop-color="#bf9f56"/>
    </linearGradient>
    <linearGradient id="Degradado_sin_nombre_2-2" data-name="Degradado sin nombre 2" x1="51.72" y1="64.03" x2="78.4" y2="64.03" xlink:href="#Degradado_sin_nombre_2"/>
    <linearGradient id="Degradado_sin_nombre_2-3" data-name="Degradado sin nombre 2" x1="114.11" y1="84.83" x2="139.83" y2="84.83" xlink:href="#Degradado_sin_nombre_2"/>
    <linearGradient id="Degradado_sin_nombre_2-4" data-name="Degradado sin nombre 2" x1="100.6" y1="64.03" x2="127.28" y2="64.03" xlink:href="#Degradado_sin_nombre_2"/>
    <linearGradient id="Degradado_sin_nombre_2-5" data-name="Degradado sin nombre 2" x1="75.02" y1="56.79" x2="103.98" y2="56.79" xlink:href="#Degradado_sin_nombre_2"/>
    <linearGradient id="Degradado_sin_nombre_2-6" data-name="Degradado sin nombre 2" x1="132.87" y1="63.32" x2="137.12" y2="63.32" xlink:href="#Degradado_sin_nombre_2"/>
    <linearGradient id="Degradado_sin_nombre_2-7" data-name="Degradado sin nombre 2" x1="128.55" y1="52.51" x2="134.22" y2="52.51" xlink:href="#Degradado_sin_nombre_2"/>
    <linearGradient id="Degradado_sin_nombre_2-8" data-name="Degradado sin nombre 2" x1="120.03" y1="47.95" x2="124.16" y2="47.95" xlink:href="#Degradado_sin_nombre_2"/>
    <linearGradient id="Degradado_sin_nombre_2-9" data-name="Degradado sin nombre 2" x1="41.88" y1="63.32" x2="46.13" y2="63.32" xlink:href="#Degradado_sin_nombre_2"/>
    <linearGradient id="Degradado_sin_nombre_2-10" data-name="Degradado sin nombre 2" x1="44.78" y1="52.51" x2="50.45" y2="52.51" xlink:href="#Degradado_sin_nombre_2"/>
    <linearGradient id="Degradado_sin_nombre_2-11" data-name="Degradado sin nombre 2" x1="54.84" y1="47.95" x2="58.97" y2="47.95" xlink:href="#Degradado_sin_nombre_2"/>
    <linearGradient id="Degradado_sin_nombre_2-12" data-name="Degradado sin nombre 2" x1="63.56" y1="90.74" x2="86.11" y2="90.74" xlink:href="#Degradado_sin_nombre_2"/>
    <linearGradient id="Degradado_sin_nombre_2-13" data-name="Degradado sin nombre 2" x1="79.72" y1="140.75" x2="99.28" y2="140.75" xlink:href="#Degradado_sin_nombre_2"/>
    <linearGradient id="Degradado_sin_nombre_2-14" data-name="Degradado sin nombre 2" x1="88" y1="131.74" x2="91" y2="131.74" xlink:href="#Degradado_sin_nombre_2"/>
    <linearGradient id="Degradado_sin_nombre_2-15" data-name="Degradado sin nombre 2" x1="71.28" y1="107.31" x2="107.72" y2="107.31" xlink:href="#Degradado_sin_nombre_2"/>
    <linearGradient id="Degradado_sin_nombre_2-16" data-name="Degradado sin nombre 2" x1="74.84" y1="104.9" x2="104.16" y2="104.9" xlink:href="#Degradado_sin_nombre_2"/>
    <linearGradient id="Degradado_sin_nombre_2-17" data-name="Degradado sin nombre 2" x1="101.08" y1="82.1" x2="105.62" y2="82.1" xlink:href="#Degradado_sin_nombre_2"/>
  </defs>
  <g id="cocktail_drink_luxury_VIP" data-name="cocktail, drink, luxury, VIP">
    <g>
      <g>
        <polyline class="cls-1" points="55.16 80.56 61.8 81.67 57.08 86.49 58.06 93.17 52.03 90.18 46 93.17 46.98 86.49 42.25 81.67 48.9 80.56 52.03 74.57"/>
        <polygon class="cls-9" points="65.06 54.56 68.35 60.85 75.33 62.02 70.37 67.11 71.42 74.11 65.06 70.95 58.71 74.11 59.75 67.11 54.8 62.02 61.77 60.85 65.06 54.56"/>
        <polyline class="cls-12" points="123.84 80.56 117.2 81.67 121.92 86.49 120.94 93.17 126.97 90.18 133 93.17 132.02 86.49 136.75 81.67 130.1 80.56 126.97 74.57"/>
        <polygon class="cls-8" points="113.94 54.56 110.65 60.85 103.67 62.02 108.63 67.11 107.58 74.11 113.94 70.95 120.29 74.11 119.25 67.11 124.2 62.02 117.23 60.85 113.94 54.56"/>
        <polygon class="cls-14" points="89.5 46.25 85.85 53.23 78.1 54.53 83.6 60.17 82.46 67.96 89.5 64.47 96.54 67.96 95.4 60.17 100.9 54.53 93.15 53.23 89.5 46.25"/>
      </g>
      <line class="cls-2" x1="133.24" y1="63.77" x2="136.75" y2="62.87"/>
      <line class="cls-3" x1="129.58" y1="54.21" x2="133.19" y2="50.82"/>
      <line class="cls-7" x1="121.43" y1="49.65" x2="122.76" y2="46.25"/>
      <line class="cls-10" x1="45.76" y1="63.77" x2="42.25" y2="62.87"/>
      <line class="cls-13" x1="49.42" y1="54.21" x2="45.81" y2="50.82"/>
      <line class="cls-4" x1="57.57" y1="49.65" x2="56.24" y2="46.25"/>
      <path class="cls-17" d="M66.38,96.77c-.84-1.44-1.32-3.12-1.32-4.9,0-5.4,4.38-9.78,9.78-9.78,2.7,0,5.14,1.09,6.91,2.86,1.77,1.77,2.86,4.21,2.86,6.91,0,3.19-1.53,6.02-3.89,7.81"/>
      <line class="cls-11" x1="79.72" y1="140.75" x2="99.28" y2="140.75"/>
      <line class="cls-5" x1="89.5" y1="140.75" x2="89.5" y2="122.74"/>
      <path class="cls-16" d="M84.61,91.87h-9.94c-1.21,2.31-1.9,4.93-1.9,7.72,0,5.92,3.08,11.11,7.73,14.08,0,.02,0,.04,0,.07,0,4.97,4.03,9,9.01,9s9.01-4.03,9.01-9c0-.02,0-.04,0-.07,4.64-2.97,7.73-8.16,7.73-14.08,0-2.79-.69-5.41-1.9-7.72h-13.2"/>
      <line class="cls-6" x1="74.84" y1="104.9" x2="104.16" y2="104.9"/>
      <line class="cls-15" x1="102.53" y1="85.35" x2="104.16" y2="78.84"/>
    </g>
  </g>
</svg>