<?xml version="1.0" encoding="utf-8"?>
<!-- Generator: Adobe Illustrator 28.1.0, SVG Export Plug-In . SVG Version: 6.00 Build 0)  -->
<svg version="1.1" id="vestido" xmlns="http://www.w3.org/2000/svg" xmlns:xlink="http://www.w3.org/1999/xlink" x="0px" y="0px"
	 viewBox="0 0 179 187" style="enable-background:new 0 0 179 187;" xml:space="preserve">
<style type="text/css">
	.st0{fill:#B92452;}
</style>
<g>
	<path class="st0" d="M101.1,78.2c0.2-15.6,4.3-24.2,4.4-24.3c0.4-0.8,0.1-1.7-0.6-2.1c-2-1.2-4.1-1.8-6.2-1.8
		c-4.3,0-7.5,2.7-9.2,4.5c-1.7-1.9-4.9-4.5-9.2-4.5c-2.1,0-4.1,0.6-6.2,1.8c-0.7,0.4-1,1.4-0.6,2.1c0,0.1,4.2,8.6,4.4,24.3
		C72.5,82,40,106.8,40,152.1c0,2.5,13,7.4,13.1,7.5c7.4,2.7,19.7,5.9,36.4,5.9s29-3.2,36.4-5.9c0.1-0.1,13.1-4.9,13.1-7.5
		C139,106.8,106.5,82,101.1,78.2L101.1,78.2z M77.1,53.9c1.1-0.5,2.2-0.7,3.2-0.7c4.7,0,7.8,4.8,7.8,4.8c0.6,0.9,2.2,0.9,2.8,0
		c0,0,3.1-4.8,7.8-4.8c1.1,0,2.1,0.2,3.2,0.7c-1.2,3.1-3.8,11.1-4.1,23.5H81.2C81,65,78.4,57,77.1,53.9z M89.5,162.3
		c-27.8,0-43.2-9-46.2-11c0.4-44.1,32.8-67.9,36.8-70.6H99c3.9,2.7,36.4,26.4,36.8,70.6C132.7,153.2,117.3,162.3,89.5,162.3
		L89.5,162.3z"/>
	<path class="st0" d="M116.6,33.5c0-1.3,0.1-2.5,0.2-3.7c0.3-2.6,0.5-4.9-0.9-6.5c-1.1-1.2-3.1-1.8-6.2-1.8
		c-6.6,0-12.5,2.6-15.4,6.7l0,0c-0.6-0.4-1.4-0.7-2.2-0.7l-5.1,0c-0.8,0-1.6,0.3-2.2,0.7l0,0c-3-4.1-8.9-6.6-15.5-6.5
		c-3.1,0-5.1,0.6-6.2,1.9c-1.4,1.6-1.2,3.9-0.8,6.5c0.1,1.2,0.3,2.4,0.3,3.7s-0.1,2.5-0.3,3.7c-0.3,2.6-0.5,4.9,0.9,6.5
		c1.1,1.2,3.1,1.8,6.2,1.8c6.5,0,12.3-2.6,15.3-6.6l0,0c0.7,0.5,1.5,0.8,2.3,0.7l5.1,0c0.9,0,1.7-0.3,2.3-0.8l0,0
		c3,4,8.9,6.4,15.4,6.4c3.1,0,5.1-0.6,6.2-1.9c1.4-1.6,1.1-3.9,0.8-6.5C116.7,36,116.6,34.8,116.6,33.5L116.6,33.5z M82.9,38.8
		c-2.8,3.3-7.9,5.3-13.5,5.4c-2.6,0-4.2-0.4-5-1.2c-0.9-1-0.7-2.8-0.5-5.2c0.1-1.2,0.3-2.5,0.3-3.9c0-1.4-0.2-2.7-0.3-3.9
		c-0.3-2.3-0.5-4.1,0.4-5.2c0.8-0.9,2.4-1.3,5-1.3c5.7,0,11,2,13.7,5.3c-0.6,0.8-0.9,1.8-0.9,2.8l0,4.6C82.1,37.1,82.4,38,82.9,38.8
		L82.9,38.8z M92.1,38.3l-5.1,0c-1.2,0-2.2-1-2.2-2.2l0-4.6c0-1.2,1-2.2,2.2-2.2l5.1,0c1.2,0,2.2,1,2.2,2.2l0,4.6
		C94.3,37.3,93.3,38.3,92.1,38.3z M115.2,37.4c0.3,2.3,0.5,4.1-0.4,5.2c-0.8,0.9-2.4,1.3-5,1.3c-5.7,0-10.8-1.9-13.6-5.2
		C96.7,37.9,97,37,97,36l0-4.6c0-1-0.3-2-0.9-2.8c2.7-3.3,8-5.5,13.6-5.5c2.6,0,4.2,0.4,5,1.2c0.9,1,0.7,2.8,0.5,5.2
		c-0.1,1.2-0.3,2.5-0.3,3.9S115,36.2,115.2,37.4L115.2,37.4z"/>
</g>
</svg>
