<?xml version="1.0" encoding="UTF-8"?>
<svg id="mail" xmlns="http://www.w3.org/2000/svg" xmlns:xlink="http://www.w3.org/1999/xlink" viewBox="0 0 179 187">
  <defs>
    <style>
      .cls-1 {
        stroke: url(#Degradado_sin_nombre_2);
      }

      .cls-1, .cls-2, .cls-3, .cls-4, .cls-5, .cls-6, .cls-7 {
        fill: none;
        stroke-miterlimit: 10;
        stroke-width: 3px;
      }

      .cls-2 {
        stroke: url(#Degradado_sin_nombre_2-6);
      }

      .cls-3 {
        stroke: url(#Degradado_sin_nombre_2-7);
      }

      .cls-4 {
        stroke: url(#Degradado_sin_nombre_2-4);
      }

      .cls-5 {
        stroke: url(#Degradado_sin_nombre_2-2);
      }

      .cls-6 {
        stroke: url(#Degradado_sin_nombre_2-3);
      }

      .cls-7 {
        stroke: url(#Degradado_sin_nombre_2-5);
      }
    </style>
    <linearGradient id="Degradado_sin_nombre_2" data-name="Degradado sin nombre 2" x1="127.56" y1="65.81" x2="130.56" y2="65.81" gradientUnits="userSpaceOnUse">
      <stop offset="0" stop-color="#bf9f56"/>
      <stop offset=".15" stop-color="#bf9f56"/>
      <stop offset="1" stop-color="#bf9f56"/>
    </linearGradient>
    <linearGradient id="Degradado_sin_nombre_2-2" data-name="Degradado sin nombre 2" x1="48.44" y1="65.06" x2="129.06" y2="65.06" xlink:href="#Degradado_sin_nombre_2"/>
    <linearGradient id="Degradado_sin_nombre_2-3" data-name="Degradado sin nombre 2" x1="37.14" y1="115.32" x2="141.86" y2="115.32" xlink:href="#Degradado_sin_nombre_2"/>
    <linearGradient id="Degradado_sin_nombre_2-4" data-name="Degradado sin nombre 2" x1="37.77" y1="124.28" x2="141.23" y2="124.28" xlink:href="#Degradado_sin_nombre_2"/>
    <linearGradient id="Degradado_sin_nombre_2-5" data-name="Degradado sin nombre 2" x1="128.1" y1="79.47" x2="141.31" y2="79.47" xlink:href="#Degradado_sin_nombre_2"/>
    <linearGradient id="Degradado_sin_nombre_2-6" data-name="Degradado sin nombre 2" x1="37.69" y1="79.48" x2="50.89" y2="79.48" xlink:href="#Degradado_sin_nombre_2"/>
    <linearGradient id="Degradado_sin_nombre_2-7" data-name="Degradado sin nombre 2" x1="65.73" y1="70.39" x2="113.32" y2="70.39" xlink:href="#Degradado_sin_nombre_2"/>
  </defs>
  <g id="event_message_letter_mail_invitation_star" data-name="event, message, letter, mail, invitation, star">
    <g>
      <line class="cls-1" x1="129.06" y1="92.75" x2="129.06" y2="38.87"/>
      <polyline class="cls-5" points="129.06 38.87 49.94 38.87 49.94 92.75"/>
      <polyline class="cls-6" points="108.34 108.99 140.36 84.08 140.36 148.13 38.64 148.13 38.64 84.08 70.86 109.15"/>
      <polyline class="cls-4" points="38.64 142.48 89.5 106.69 140.36 142.48"/>
      <line class="cls-7" x1="129.04" y1="74.86" x2="140.36" y2="84.08"/>
      <line class="cls-2" x1="38.64" y1="84.08" x2="49.94" y2="74.87"/>
      <polyline class="cls-3" points="87.27 55.3 89.53 50.99 96.16 63.65 110.25 66.05 100.26 76.27 102.33 90.41 89.53 84.06 76.72 90.41 78.8 76.27 68.8 66.05 82.9 63.65 84.32 60.93"/>
    </g>
  </g>
</svg>