<?xml version="1.0" encoding="utf-8"?>
<!-- Generator: Adobe Illustrator 28.1.0, SVG Export Plug-In . SVG Version: 6.00 Build 0)  -->
<svg version="1.1" xmlns="http://www.w3.org/2000/svg" xmlns:xlink="http://www.w3.org/1999/xlink" x="0px" y="0px"
	 viewBox="0 0 179 187" style="enable-background:new 0 0 179 187;" xml:space="preserve">
<style type="text/css">
	.st0{fill:none;stroke:url(#SVGID_1_);stroke-width:3;stroke-miterlimit:10;}
	.st1{fill:none;stroke:url(#SVGID_00000063607462819214247280000005004832537623136662_);stroke-width:3;stroke-miterlimit:10;}
	.st2{fill:none;stroke:url(#SVGID_00000122707354320622918580000006670231325128006059_);stroke-width:3;stroke-miterlimit:10;}
	.st3{fill:none;stroke:url(#SVGID_00000023262058858824315560000005602332188026015909_);stroke-width:3;stroke-miterlimit:10;}
	.st4{fill:none;stroke:url(#SVGID_00000144313292976482330780000010705581329736474277_);stroke-width:3;stroke-miterlimit:10;}
	.st5{fill:none;stroke:url(#SVGID_00000072270292347297014490000000657257571115029923_);stroke-width:3;stroke-miterlimit:10;}
	.st6{fill:none;stroke:url(#SVGID_00000014596724519422977210000004356799125628679343_);stroke-width:3;stroke-miterlimit:10;}
	.st7{fill:none;stroke:url(#SVGID_00000174563028373860081080000006117748348265891765_);stroke-width:3;stroke-miterlimit:10;}
	.st8{fill:none;stroke:url(#SVGID_00000156584774872516666180000016773652821154584469_);stroke-width:3;stroke-miterlimit:10;}
	.st9{fill:none;stroke:url(#SVGID_00000056421982078387735680000015819644622833810875_);stroke-width:3;stroke-miterlimit:10;}
	.st10{fill:none;stroke:#B92452;stroke-width:3;stroke-linecap:round;stroke-miterlimit:10;}
</style>
<g id="musica">
	<g id="music_record_DJ_vinyl">
		<g>
			
				<linearGradient id="SVGID_1_" gradientUnits="userSpaceOnUse" x1="50.78" y1="95.79" x2="53.78" y2="95.79" gradientTransform="matrix(1 0 0 -1 0 188)">
				<stop  offset="0" style="stop-color:#BF9F56"/>
				<stop  offset="0.15" style="stop-color:#BF9F56"/>
				<stop  offset="1" style="stop-color:#BF9F56"/>
			</linearGradient>
			<path class="st0" d="M52.3,92.5c0-0.2,0-0.3,0-0.5"/>
			
				<linearGradient id="SVGID_00000139980432978329642730000013464231295031511200_" gradientUnits="userSpaceOnUse" x1="51.39" y1="86.9306" x2="55.61" y2="86.9306" gradientTransform="matrix(1 0 0 -1 0 188)">
				<stop  offset="0" style="stop-color:#BF9F56"/>
				<stop  offset="0.15" style="stop-color:#BF9F56"/>
				<stop  offset="1" style="stop-color:#BF9F56"/>
			</linearGradient>
			
				<path style="fill:none;stroke:url(#SVGID_00000139980432978329642730000013464231295031511200_);stroke-width:3;stroke-miterlimit:10;" d="
				M54.2,103.5c-0.6-1.7-1-3.4-1.3-5.1"/>
			
				<linearGradient id="SVGID_00000115485544646067034570000010037284815695453064_" gradientUnits="userSpaceOnUse" x1="55.616" y1="69.0157" x2="87.96" y2="69.0157" gradientTransform="matrix(1 0 0 -1 0 188)">
				<stop  offset="0" style="stop-color:#BF9F56"/>
				<stop  offset="0.15" style="stop-color:#BF9F56"/>
				<stop  offset="1" style="stop-color:#BF9F56"/>
			</linearGradient>
			
				<path style="fill:none;stroke:url(#SVGID_00000115485544646067034570000010037284815695453064_);stroke-width:3;stroke-miterlimit:10;" d="
				M88,127.6c-13.3,0-24.9-7.3-31-18.1"/>
			
				<linearGradient id="SVGID_00000006705861950744198120000009422122273436782235_" gradientUnits="userSpaceOnUse" x1="84.97" y1="96.04" x2="90.95" y2="96.04" gradientTransform="matrix(1 0 0 -1 0 188)">
				<stop  offset="0" style="stop-color:#BF9F56"/>
				<stop  offset="0.15" style="stop-color:#BF9F56"/>
				<stop  offset="1" style="stop-color:#BF9F56"/>
			</linearGradient>
			
				<path style="fill:none;stroke:url(#SVGID_00000006705861950744198120000009422122273436782235_);stroke-width:3;stroke-miterlimit:10;" d="
				M89.4,92c0,0.8-0.7,1.5-1.5,1.5s-1.5-0.7-1.5-1.5s0.7-1.5,1.5-1.5S89.4,91.1,89.4,92z"/>
			
				<linearGradient id="SVGID_00000152234818346980414770000005460934028849701277_" gradientUnits="userSpaceOnUse" x1="43.35" y1="96.03" x2="108.2317" y2="96.03" gradientTransform="matrix(1 0 0 -1 0 188)">
				<stop  offset="0" style="stop-color:#BF9F56"/>
				<stop  offset="0.15" style="stop-color:#BF9F56"/>
				<stop  offset="1" style="stop-color:#BF9F56"/>
			</linearGradient>
			
				<path style="fill:none;stroke:url(#SVGID_00000152234818346980414770000005460934028849701277_);stroke-width:3;stroke-miterlimit:10;" d="
				M107.6,130.4c-5.9,3-12.5,4.7-19.6,4.7c-23.8,0-43.1-19.3-43.1-43.1S64.2,48.9,88,48.9c1.6,0,3.2,0.1,4.8,0.3"/>
			
				<linearGradient id="SVGID_00000180350084934540314540000000019577074170921146_" gradientUnits="userSpaceOnUse" x1="105.4881" y1="118.5543" x2="132.3112" y2="118.5543" gradientTransform="matrix(1 0 0 -1 0 188)">
				<stop  offset="0" style="stop-color:#BF9F56"/>
				<stop  offset="0.15" style="stop-color:#BF9F56"/>
				<stop  offset="1" style="stop-color:#BF9F56"/>
			</linearGradient>
			
				<path style="fill:none;stroke:url(#SVGID_00000180350084934540314540000000019577074170921146_);stroke-width:3;stroke-miterlimit:10;" d="
				M106.1,52.8c13.4,6.2,23,19.1,24.7,34.4"/>
			
				<linearGradient id="SVGID_00000183959739240335615560000005465003400652408197_" gradientUnits="userSpaceOnUse" x1="120.34" y1="136.07" x2="135.66" y2="136.07" gradientTransform="matrix(1 0 0 -1 0 188)">
				<stop  offset="0" style="stop-color:#BF9F56"/>
				<stop  offset="0.15" style="stop-color:#BF9F56"/>
				<stop  offset="1" style="stop-color:#BF9F56"/>
			</linearGradient>
			
				<rect x="121.8" y="48.8" style="fill:none;stroke:url(#SVGID_00000183959739240335615560000005465003400652408197_);stroke-width:3;stroke-miterlimit:10;" width="12.3" height="6.2"/>
			
				<linearGradient id="SVGID_00000086662192427239128030000007191778042188050051_" gradientUnits="userSpaceOnUse" x1="65.3127" y1="113.1295" x2="78.4693" y2="113.1295" gradientTransform="matrix(1 0 0 -1 0 188)">
				<stop  offset="0" style="stop-color:#BF9F56"/>
				<stop  offset="0.15" style="stop-color:#BF9F56"/>
				<stop  offset="1" style="stop-color:#BF9F56"/>
			</linearGradient>
			
				<path style="fill:none;stroke:url(#SVGID_00000086662192427239128030000007191778042188050051_);stroke-width:3;stroke-miterlimit:10;" d="
				M72.4,78.5l4-6c0.9-1.4,0.6-3.3-0.8-4.3c-0.5-0.3-1.1-0.5-1.7-0.5c-1,0-2,0.5-2.6,1.3l-4,6c-0.9,1.4-0.6,3.3,0.9,4.3
				c0.5,0.3,1.1,0.5,1.7,0.5C70.9,79.9,71.9,79.4,72.4,78.5L72.4,78.5z"/>
			
				<linearGradient id="SVGID_00000106870170840928709810000012063285703364697483_" gradientUnits="userSpaceOnUse" x1="74.7742" y1="128.4668" x2="121.9282" y2="128.4668" gradientTransform="matrix(1 0 0 -1 0 188)">
				<stop  offset="0" style="stop-color:#BF9F56"/>
				<stop  offset="0.15" style="stop-color:#BF9F56"/>
				<stop  offset="1" style="stop-color:#BF9F56"/>
			</linearGradient>
			
				<path style="fill:none;stroke:url(#SVGID_00000106870170840928709810000012063285703364697483_);stroke-width:3;stroke-miterlimit:10;" d="
				M75.9,67.7l2.5-3.1c5.4-6.8,13.5-10.9,22.2-11.4l21.2-1.2"/>
			
				<linearGradient id="SVGID_00000075126562992893557420000002943659142125382546_" gradientUnits="userSpaceOnUse" x1="72.6" y1="96.04" x2="103.32" y2="96.04" gradientTransform="matrix(1 0 0 -1 0 188)">
				<stop  offset="0" style="stop-color:#BF9F56"/>
				<stop  offset="0.15" style="stop-color:#BF9F56"/>
				<stop  offset="1" style="stop-color:#BF9F56"/>
			</linearGradient>
			
				<circle style="fill:none;stroke:url(#SVGID_00000075126562992893557420000002943659142125382546_);stroke-width:3;stroke-miterlimit:10;" cx="88" cy="92" r="13.9"/>
		</g>
	</g>
</g>
<g id="Capa_2">
	<g>
		<line class="st10" x1="112.6" y1="117" x2="112.6" y2="111.9"/>
		<path class="st10" d="M114.6,136.5v-1.2c0-3-1.7-5.6-4.2-7.1c-2.4-1.4-4-4.1-4-7.1v-15.4c1.7,0,3.2,0.7,4.3,1.8s1.8,2.7,1.8,4.3
			V93.4c0-1.7,1.4-3.1,3.1-3.1s3.1,1.4,3.1,3.1v-3.1c0-1.7,1.4-3.1,3.1-3.1s3.1,1.4,3.1,3.1v2.1c0-1.7,1.4-3.1,3.1-3.1
			c1.7,0,3.1,1.4,3.1,3.1v5.1c0-1.7,1.4-3.1,3.1-3.1c1.7,0,3.1,1.4,3.1,3.1v24.6c0,2.7-1.1,5.3-2.9,7.2c-0.7,0.8-1.2,1.8-1.2,2.9
			v4.3"/>
		<path class="st10" d="M131.1,107.8V96.5 M124.9,92.4v12.3 M118.8,106.8V92.4"/>
	</g>
</g>
</svg>
