<?xml version="1.0" encoding="UTF-8"?>
<svg id="musica" xmlns="http://www.w3.org/2000/svg" xmlns:xlink="http://www.w3.org/1999/xlink" viewBox="0 0 179 187">
  <defs>
    <style>
      .cls-1 {
        stroke: url(#Degradado_sin_nombre_2);
      }

      .cls-1, .cls-2, .cls-3, .cls-4, .cls-5, .cls-6, .cls-7, .cls-8, .cls-9, .cls-10, .cls-11, .cls-12, .cls-13 {
        fill: none;
        stroke-miterlimit: 10;
        stroke-width: 3px;
      }

      .cls-2 {
        stroke: url(#Degradado_sin_nombre_2-6);
      }

      .cls-3 {
        stroke: url(#Degradado_sin_nombre_2-7);
      }

      .cls-4 {
        stroke: url(#Degradado_sin_nombre_2-11);
      }

      .cls-5 {
        stroke: url(#Degradado_sin_nombre_2-8);
      }

      .cls-6 {
        stroke: url(#Degradado_sin_nombre_2-4);
      }

      .cls-7 {
        stroke: url(#Degradado_sin_nombre_2-2);
      }

      .cls-8 {
        stroke: url(#Degradado_sin_nombre_2-9);
      }

      .cls-9 {
        stroke: url(#Degradado_sin_nombre_2-13);
      }

      .cls-10 {
        stroke: url(#Degradado_sin_nombre_2-3);
      }

      .cls-11 {
        stroke: url(#Degradado_sin_nombre_2-10);
      }

      .cls-12 {
        stroke: url(#Degradado_sin_nombre_2-5);
      }

      .cls-13 {
        stroke: url(#Degradado_sin_nombre_2-12);
      }
    </style>
    <linearGradient id="Degradado_sin_nombre_2" data-name="Degradado sin nombre 2" x1="50.78" y1="92.22" x2="53.78" y2="92.22" gradientUnits="userSpaceOnUse">
      <stop offset="0" stop-color="#bf9f56"/>
      <stop offset=".15" stop-color="#bf9f56"/>
      <stop offset="1" stop-color="#bf9f56"/>
    </linearGradient>
    <linearGradient id="Degradado_sin_nombre_2-2" data-name="Degradado sin nombre 2" x1="51.39" y1="101.07" x2="55.61" y2="101.07" xlink:href="#Degradado_sin_nombre_2"/>
    <linearGradient id="Degradado_sin_nombre_2-3" data-name="Degradado sin nombre 2" x1="55.62" y1="118.99" x2="87.96" y2="118.99" xlink:href="#Degradado_sin_nombre_2"/>
    <linearGradient id="Degradado_sin_nombre_2-4" data-name="Degradado sin nombre 2" x1="84.97" y1="91.96" x2="90.95" y2="91.96" xlink:href="#Degradado_sin_nombre_2"/>
    <linearGradient id="Degradado_sin_nombre_2-5" data-name="Degradado sin nombre 2" x1="43.35" y1="91.96" x2="108.24" y2="91.96" xlink:href="#Degradado_sin_nombre_2"/>
    <linearGradient id="Degradado_sin_nombre_2-6" data-name="Degradado sin nombre 2" x1="105.49" y1="69.45" x2="132.31" y2="69.45" xlink:href="#Degradado_sin_nombre_2"/>
    <linearGradient id="Degradado_sin_nombre_2-7" data-name="Degradado sin nombre 2" x1="108.02" y1="116.08" x2="111.02" y2="116.08" xlink:href="#Degradado_sin_nombre_2"/>
    <linearGradient id="Degradado_sin_nombre_2-8" data-name="Degradado sin nombre 2" x1="101.86" y1="112.92" x2="135.65" y2="112.92" xlink:href="#Degradado_sin_nombre_2"/>
    <linearGradient id="Degradado_sin_nombre_2-9" data-name="Degradado sin nombre 2" x1="114.18" y1="101.71" x2="129.49" y2="101.71" xlink:href="#Degradado_sin_nombre_2"/>
    <linearGradient id="Degradado_sin_nombre_2-10" data-name="Degradado sin nombre 2" x1="120.34" y1="51.93" x2="135.65" y2="51.93" xlink:href="#Degradado_sin_nombre_2"/>
    <linearGradient id="Degradado_sin_nombre_2-11" data-name="Degradado sin nombre 2" x1="65.31" y1="73.84" x2="78.47" y2="73.84" xlink:href="#Degradado_sin_nombre_2"/>
    <linearGradient id="Degradado_sin_nombre_2-12" data-name="Degradado sin nombre 2" x1="74.77" y1="59.53" x2="121.92" y2="59.53" xlink:href="#Degradado_sin_nombre_2"/>
    <linearGradient id="Degradado_sin_nombre_2-13" data-name="Degradado sin nombre 2" x1="72.6" y1="91.96" x2="103.32" y2="91.96" xlink:href="#Degradado_sin_nombre_2"/>
  </defs>
  <g id="music_record_DJ_vinyl" data-name="music, record, DJ, vinyl">
    <g>
      <path class="cls-1" d="M52.28,92.46c0-.17,0-.33,0-.5"/>
      <path class="cls-7" d="M54.19,103.52c-.57-1.66-1.01-3.36-1.33-5.12"/>
      <path class="cls-10" d="M87.96,127.64c-13.3,0-24.9-7.27-31.04-18.07"/>
      <path class="cls-6" d="M89.45,91.96c0,.83-.65,1.49-1.49,1.49s-1.49-.65-1.49-1.49.65-1.49,1.49-1.49,1.49.65,1.49,1.49Z"/>
      <path class="cls-12" d="M107.55,130.38c-5.88,3-12.54,4.7-19.59,4.7-23.82,0-43.11-19.3-43.11-43.11s19.3-43.11,43.11-43.11c1.62,0,3.22.09,4.79.26"/>
      <path class="cls-2" d="M106.12,52.84c13.39,6.22,23.04,19.11,24.7,34.41"/>
      <line class="cls-3" x1="109.52" y1="118.65" x2="109.52" y2="113.52"/>
      <path class="cls-5" d="M111.57,138.15v-1.19c0-2.96-1.65-5.63-4.21-7.14-2.4-1.44-4-4.07-4-7.06v-15.4c1.71,0,3.24.7,4.35,1.81,1.11,1.11,1.81,2.65,1.81,4.35v-18.48c0-1.7,1.37-3.08,3.08-3.08s3.08,1.38,3.08,3.08v-3.08c0-1.7,1.37-3.08,3.08-3.08s3.08,1.38,3.08,3.08v2.05c0-1.7,1.37-3.08,3.08-3.08s3.08,1.38,3.08,3.08v5.13c0-1.71,1.37-3.08,3.08-3.08s3.08,1.37,3.08,3.08v24.64c0,2.71-1.07,5.28-2.94,7.18-.74.76-1.17,1.79-1.17,2.85v4.33"/>
      <path class="cls-8" d="M127.99,109.41v-11.29M121.84,94.01v12.32M115.68,108.38v-14.37"/>
      <rect class="cls-11" x="121.84" y="48.85" width="12.32" height="6.16"/>
      <path class="cls-4" d="M72.44,78.53l4-6.01c.95-1.42.59-3.33-.83-4.28-.52-.34-1.11-.49-1.69-.49-1.02,0-1.97.46-2.59,1.35l-4,6.01c-.95,1.42-.55,3.33.86,4.28.52.34,1.11.52,1.69.52.99,0,1.97-.49,2.56-1.39Z"/>
      <path class="cls-13" d="M75.94,67.69l2.51-3.1c5.45-6.75,13.49-10.9,22.16-11.41l21.23-1.25"/>
      <circle class="cls-9" cx="87.96" cy="91.96" r="13.86"/>
    </g>
  </g>
</svg>