<?xml version="1.0" encoding="utf-8"?>
<!-- Generator: Adobe Illustrator 28.1.0, SVG Export Plug-In . SVG Version: 6.00 Build 0)  -->
<svg version="1.1" xmlns="http://www.w3.org/2000/svg" xmlns:xlink="http://www.w3.org/1999/xlink" x="0px" y="0px"
	 viewBox="0 0 179 187" style="enable-background:new 0 0 179 187;" xml:space="preserve">
<style type="text/css">
	.st0{fill:none;stroke:url(#SVGID_1_);stroke-width:3;stroke-miterlimit:10;}
	.st1{fill:none;stroke:url(#SVGID_00000011734693580991377760000017292728155861356461_);stroke-width:3;stroke-miterlimit:10;}
	.st2{fill:none;stroke:url(#SVGID_00000003795477736602763470000017209978107407221647_);stroke-width:3;stroke-miterlimit:10;}
	.st3{fill:none;stroke:url(#SVGID_00000166643889667219597050000014548843561486749588_);stroke-width:3;stroke-miterlimit:10;}
	.st4{fill:none;stroke:#B92452;stroke-width:3;stroke-linecap:round;stroke-miterlimit:10;}
</style>
<g id="Capa_1">
	<g id="photography_person_camera">
		<g>
			
				<linearGradient id="SVGID_1_" gradientUnits="userSpaceOnUse" x1="69.9199" y1="99.7582" x2="100.71" y2="99.7582" gradientTransform="matrix(1 0 0 -1 0 188)">
				<stop  offset="0" style="stop-color:#BF9F56"/>
				<stop  offset="0.15" style="stop-color:#BF9F56"/>
				<stop  offset="1" style="stop-color:#BF9F56"/>
			</linearGradient>
			<path class="st0" d="M99.2,76.6v0.8c0,3.3-2.1,6.3-5.2,7.4l-11.1,4c-5.2,1.9-9.4,5.8-11.5,10.9l-0.2,0.4"/>
			
				<linearGradient id="SVGID_00000041259769888602612800000002289169752246905763_" gradientUnits="userSpaceOnUse" x1="92.82" y1="79.755" x2="138.18" y2="79.755" gradientTransform="matrix(1 0 0 -1 0 188)">
				<stop  offset="0" style="stop-color:#BF9F56"/>
				<stop  offset="0.15" style="stop-color:#BF9F56"/>
				<stop  offset="1" style="stop-color:#BF9F56"/>
			</linearGradient>
			
				<path style="fill:none;stroke:url(#SVGID_00000041259769888602612800000002289169752246905763_);stroke-width:3;stroke-miterlimit:10;" d="
				M126.9,106.5v19.6c0,1.8-1.5,3.3-3.3,3.3H99.2c-2.7,0-4.9,2.2-4.9,4.9s2.2,4.9,4.9,4.9h24.4c7.2,0,13-5.8,13-13v-25.3
				c0-5.5-3.5-10.5-8.7-12.3l-10.5-3.7c-0.6-0.2-1.1-0.5-1.6-0.8c-2.2-1.4-3.6-3.9-3.6-6.6v-0.8"/>
			
				<linearGradient id="SVGID_00000091703047165078314120000012467289879705787814_" gradientUnits="userSpaceOnUse" x1="92.82" y1="124.645" x2="118.62" y2="124.645" gradientTransform="matrix(1 0 0 -1 0 188)">
				<stop  offset="0" style="stop-color:#BF9F56"/>
				<stop  offset="0.15" style="stop-color:#BF9F56"/>
				<stop  offset="1" style="stop-color:#BF9F56"/>
			</linearGradient>
			
				<path style="fill:none;stroke:url(#SVGID_00000091703047165078314120000012467289879705787814_);stroke-width:3;stroke-miterlimit:10;" d="
				M99.2,76.2c-2.7-2.3-4.9-6.6-4.9-13.7v-3.3c0-6.3,5.1-11.4,11.4-11.4l0,0c6.3,0,11.4,5.1,11.4,11.4v3.3c0,13-7.5,16.3-11.4,16.3"
				/>
			
				<linearGradient id="SVGID_00000045581682937343589050000010545340105254229163_" gradientUnits="userSpaceOnUse" x1="40.82" y1="70.06" x2="56.73" y2="70.06" gradientTransform="matrix(1 0 0 -1 0 188)">
				<stop  offset="0" style="stop-color:#BF9F56"/>
				<stop  offset="0.15" style="stop-color:#BF9F56"/>
				<stop  offset="1" style="stop-color:#BF9F56"/>
			</linearGradient>
			
				<path style="fill:none;stroke:url(#SVGID_00000045581682937343589050000010545340105254229163_);stroke-width:3;stroke-miterlimit:10;" d="
				M42.3,117.9c0-2.7,2.2-4.9,4.9-4.9h3.1c2.7,0,4.9,2.2,4.9,4.9s-2.2,4.9-4.9,4.9h-3.1C44.5,122.8,42.3,120.7,42.3,117.9z"/>
		</g>
	</g>
</g>
<g id="Capa_2">
	<path class="st4" d="M49.7,122.7v13c0,1.8,1.5,3.3,3.3,3.3h37.5"/>
	<path class="st4" d="M98.6,129.5v-19.8c0-1.8-1.5-3.3-3.3-3.3h-8.2l-2.3-4.7c-0.6-1.1-1.7-1.8-2.9-1.8H66.4c-1.2,0-2.4,0.7-2.9,1.8
		l-2.3,4.7h-8.2c-1.8,0-3.3,1.5-3.3,3.3v3.3"/>
	<g>
		<g>
			<line class="st4" x1="76.1" y1="61.3" x2="77.5" y2="60.6"/>
			<line class="st4" x1="67.5" y1="65.9" x2="68.9" y2="65.1"/>
		</g>
		<g>
			<line class="st4" x1="76" y1="65.3" x2="77.4" y2="66.2"/>
			<line class="st4" x1="67.6" y1="60.3" x2="69" y2="61.1"/>
		</g>
		<g>
			<line class="st4" x1="72.5" y1="67.3" x2="72.5" y2="68.9"/>
			<line class="st4" x1="72.5" y1="57.5" x2="72.5" y2="59.2"/>
		</g>
	</g>
	<g>
		<g>
			<line class="st4" x1="58.7" y1="82.2" x2="61.6" y2="80.6"/>
			<line class="st4" x1="44.3" y1="89.8" x2="47.2" y2="88.3"/>
		</g>
		<g>
			<line class="st4" x1="58.5" y1="88.6" x2="61.3" y2="90.3"/>
			<line class="st4" x1="44.6" y1="80.2" x2="47.4" y2="81.9"/>
		</g>
		<g>
			<line class="st4" x1="52.9" y1="91.7" x2="52.9" y2="95"/>
			<line class="st4" x1="52.9" y1="75.5" x2="52.9" y2="78.7"/>
		</g>
	</g>
	<path class="st4" d="M79,121.2c0,2.7-2.2,4.9-4.9,4.9"/>
	<circle class="st4" cx="74.1" cy="121.2" r="11.4"/>
</g>
</svg>
