<?xml version="1.0" encoding="utf-8"?>
<!-- Generator: Adobe Illustrator 28.1.0, SVG Export Plug-In . SVG Version: 6.00 Build 0)  -->
<svg version="1.1" id="moño" xmlns="http://www.w3.org/2000/svg" xmlns:xlink="http://www.w3.org/1999/xlink" x="0px" y="0px"
	 viewBox="0 0 179 187" style="enable-background:new 0 0 179 187;" xml:space="preserve">
<style type="text/css">
	.st0{fill:#B92452;}
</style>
<path class="st0" d="M150.7,93.5c0-2.9,0.3-5.7,0.6-8.4c0.7-5.9,1.3-11.1-2-14.7c-2.5-2.8-7-4.2-14.1-4.2c-14.9,0-28.3,5.7-34.9,15
	l-0.1,0.1c-1.4-1-3.1-1.5-4.9-1.5H83.7c-1.8,0-3.5,0.6-4.9,1.5l-0.1-0.1c-6.7-9.2-20-15-34.9-15c-7.1,0-11.6,1.3-14.1,4.2
	c-3.2,3.6-2.7,8.7-2,14.7c0.3,2.7,0.6,5.5,0.6,8.4s-0.3,5.7-0.6,8.5c-0.7,5.9-1.2,11.1,2,14.7c2.5,2.8,7,4.2,14.1,4.2
	c14.6,0,27.9-5.6,34.6-14.6l0-0.1c1.5,1.1,3.3,1.7,5.2,1.7h11.6c1.9,0,3.8-0.6,5.2-1.7l0,0c6.8,9,20,14.6,34.7,14.6
	c7.1,0,11.6-1.3,14.1-4.2c3.2-3.6,2.6-8.7,2-14.7C151,99.3,150.7,96.4,150.7,93.5L150.7,93.5z M74.5,105c-6.3,7.4-17.9,12-30.7,12
	c-5.8,0-9.5-0.9-11.2-2.9c-2.1-2.3-1.6-6.4-1-11.7c0.3-2.7,0.6-5.7,0.6-8.9s-0.3-6.2-0.6-8.9c-0.6-5.2-1-9.4,1-11.7
	c1.7-1.9,5.4-2.9,11.2-2.9c12.8,0,24.7,4.8,30.9,12.2c-1.3,1.8-2,4-2,6.3V99C72.7,101.1,73.3,103.2,74.5,105L74.5,105z M95.3,104
	H83.7c-2.8,0-5-2.2-5-5V88.6c0-2.8,2.2-5,5-5h11.6c2.8,0,5,2.2,5,5V99C100.3,101.7,98.1,104,95.3,104z M147.5,102.4
	c0.6,5.2,1.1,9.4-1,11.7c-1.7,1.9-5.4,2.9-11.2,2.9c-12.8,0-24.4-4.6-30.7-12c1.2-1.8,1.8-3.9,1.8-6V88.6c0-2.3-0.7-4.5-2-6.3
	c6.2-7.5,18.1-12.2,30.9-12.2c5.8,0,9.5,1,11.2,2.9c2.1,2.3,1.6,6.4,1,11.7c-0.3,2.7-0.6,5.7-0.6,8.9S147.2,99.7,147.5,102.4
	L147.5,102.4z"/>
</svg>
