<?xml version="1.0" encoding="utf-8"?>
<!-- Generator: Adobe Illustrator 28.1.0, SVG Export Plug-In . SVG Version: 6.00 Build 0)  -->
<svg version="1.1" xmlns="http://www.w3.org/2000/svg" xmlns:xlink="http://www.w3.org/1999/xlink" x="0px" y="0px"
	 viewBox="0 0 179 187" style="enable-background:new 0 0 179 187;" xml:space="preserve">
<style type="text/css">
	.st0{fill:none;stroke:url(#SVGID_1_);stroke-width:3;stroke-miterlimit:10;}
	.st1{fill:none;stroke:url(#SVGID_00000137103707154846420940000016481130925928450747_);stroke-width:3;stroke-miterlimit:10;}
	.st2{fill:none;stroke:url(#SVGID_00000049924294078973439500000015585359145117010846_);stroke-width:3;stroke-miterlimit:10;}
	.st3{fill:none;stroke:#B92452;stroke-width:3;stroke-linecap:round;stroke-miterlimit:10;}
</style>
<g id="estrellas">
	<g id="celebration_fireworks_stars">
		<g>
			
				<linearGradient id="SVGID_1_" gradientUnits="userSpaceOnUse" x1="118.989" y1="52.886" x2="152.0108" y2="52.886" gradientTransform="matrix(1 0 0 -1 0 188)">
				<stop  offset="0" style="stop-color:#BF9F56"/>
				<stop  offset="0.15" style="stop-color:#BF9F56"/>
				<stop  offset="1" style="stop-color:#BF9F56"/>
			</linearGradient>
			<polygon class="st0" points="149.3,127.3 144.6,135.8 148.4,144.7 138.9,142.8 131.7,149.2 130.6,139.6 122.2,134.7 131,130.6 
				133.1,121.2 139.7,128.3 			"/>
			
				<linearGradient id="SVGID_00000135658807401822639120000003235297419677578650_" gradientUnits="userSpaceOnUse" x1="26.4969" y1="124.5738" x2="73.4333" y2="124.5738" gradientTransform="matrix(1 0 0 -1 0 188)">
				<stop  offset="0" style="stop-color:#BF9F56"/>
				<stop  offset="0.15" style="stop-color:#BF9F56"/>
				<stop  offset="1" style="stop-color:#BF9F56"/>
			</linearGradient>
			
				<polygon style="fill:none;stroke:url(#SVGID_00000135658807401822639120000003235297419677578650_);stroke-width:3;stroke-miterlimit:10;" points="
				47.5,43 56.3,54.3 70.6,54.2 62.5,66.1 67,79.7 53.3,75.6 41.8,84.1 41.3,69.8 29.7,61.5 43.2,56.7 			"/>
			
				<linearGradient id="SVGID_00000101783009953177699140000015570157730557725621_" gradientUnits="userSpaceOnUse" x1="92.5844" y1="129.6281" x2="147.2448" y2="129.6281" gradientTransform="matrix(1 0 0 -1 0 188)">
				<stop  offset="0" style="stop-color:#BF9F56"/>
				<stop  offset="0.15" style="stop-color:#BF9F56"/>
				<stop  offset="1" style="stop-color:#BF9F56"/>
			</linearGradient>
			
				<polygon style="fill:none;stroke:url(#SVGID_00000101783009953177699140000015570157730557725621_);stroke-width:3;stroke-miterlimit:10;" points="
				129.3,33.7 130.1,50.8 144,60.5 128,66.5 123.1,82.8 112.5,69.4 95.4,69.7 104.9,55.5 99.3,39.4 115.7,44 			"/>
		</g>
	</g>
</g>
<g id="Capa_3">
	<circle class="st3" cx="33.6" cy="106" r="4.1"/>
	<circle class="st3" cx="81" cy="44.1" r="4.1"/>
	<circle class="st3" cx="132.6" cy="101.9" r="6.2"/>
</g>
<g id="Capa_2">
	<path class="st3" d="M89.5,156.2c0,0,7.6-29,30.6-43.3"/>
	<path class="st3" d="M60.6,156.2c-2.9-18.6-7-28.1-14.1-35.8"/>
	<path class="st3" d="M68.5,148c0,0,1.8-35.6-10.3-57.7"/>
	<path class="st3" d="M80.9,143.8c0,0,6.2-39.9,20.6-57.7"/>
</g>
</svg>
